<svg xmlns="http://www.w3.org/2000/svg" width="426" height="395.147" viewBox="0 0 426 395.147"><defs><style>.a{fill:#f89c9b;}.b,.h{fill:#fff;}.c{fill:#f97270;}.d{fill:#978383;}.d,.g,.i{opacity:0.15;}.e{fill:#f18382;}.f,.g,.j{fill:#455a64;}.f{opacity:0.25;}.h{opacity:0.4;}.k{fill:#263238;}.l{fill:#9a4a4d;}.m{fill:#e6e6e6;}.n{fill:#e0e0e0;}.o{opacity:0.1;}.p{opacity:0.05;}.q{fill:#fb8685;}.r{fill:#fafafa;}.s{fill:#b16668;}.t{fill:#37474f;}.u{fill:#f5f5f5;}</style></defs><g transform="translate(-30.688 -29.95)"><g transform="translate(30.688 230.609)"><path class="a" d="M93.077,408.984c83.177,37.975,218.041,37.975,301.227,0s83.177-99.55,0-137.525-218.051-37.975-301.227,0S9.891,371.009,93.077,408.984Z" transform="translate(-30.688 -242.978)"/></g><g transform="translate(354.554 311.186)"><ellipse class="b" cx="40.75" cy="23.523" rx="40.75" ry="23.523"/></g><g transform="translate(55.537 29.95)"><g transform="translate(40.051)"><g transform="translate(0 42.549)"><path class="c" d="M145.62,135.6c-3.988,2.308-7.239,8.495-7.239,13.824,0,4.744,2.588,7.2,5.966,6.051v100.7l-36.7-77.011a6.511,6.511,0,0,1-.076-4.7,235.013,235.013,0,0,0,18.44-70.392,5.629,5.629,0,0,1,2.461-3.87l34.284-19.8a1.545,1.545,0,0,1,2.495,1.281c2.3,21.444,8.868,37.356,17.761,48.057a5.265,5.265,0,0,1,.942,4.421c-5.16,16.768-34.895,113.476-37.059,120.536V154a18,18,0,0,0,5.966-12.933C152.85,135.725,149.617,133.289,145.62,135.6Z" transform="translate(-107.167 -80.09)"/></g><path class="c" d="M200.745,143.813,163.687,264.349l-2.529-1.468v2.936l-16.811-9.691-36.7-77.011a6.511,6.511,0,0,1-.076-4.7,235.013,235.013,0,0,0,18.44-70.392,5.629,5.629,0,0,1,2.461-3.87l34.284-19.8a4.943,4.943,0,0,1,4.472,0l12.322,7.111a5.684,5.684,0,0,1,2.495,3.861c2.3,21.453,8.868,37.364,17.761,48.065A5.242,5.242,0,0,1,200.745,143.813Z" transform="translate(-107.166 -37.5)"/><path class="d" d="M178.435,162.4a17.792,17.792,0,0,1-6.18,12.761v100.7l-2.529-1.468V176.631c-3.394,1.154-5.966-1.29-5.966-6.034,0-5.329,3.233-11.524,7.239-13.832C174.987,154.457,178.435,157.082,178.435,162.4Z" transform="translate(-115.734 -49.018)"/><g transform="translate(16.799 52.248)"><path class="e" d="M203.742,145.585,166.684,266.121v-100.7a17.957,17.957,0,0,0,5.966-12.933c0-5.321-3.233-7.773-7.222-5.465s-7.239,8.495-7.239,13.832c0,4.744,2.571,7.2,5.966,6.034v100.7l-36.711-76.994a6.467,6.467,0,0,1-.076-4.7,235.01,235.01,0,0,0,18.449-70.4,5.63,5.63,0,0,1,2.461-3.87l34.275-19.789a1.538,1.538,0,0,1,2.486,1.281c2.3,21.453,8.868,37.364,17.761,48.065A5.217,5.217,0,0,1,203.742,145.585Z" transform="translate(-126.963 -91.52)"/></g><path class="f" d="M143.507,115.7a4.949,4.949,0,0,0-.7,1.977,234.758,234.758,0,0,1-18.449,70.4,6.215,6.215,0,0,0-.39,2.571l-16.794-9.7a6.319,6.319,0,0,1,.39-2.588,234.51,234.51,0,0,0,18.44-70.392,4.919,4.919,0,0,1,.7-1.986Z" transform="translate(-107.167 -41.461)"/><path class="g" d="M185.471,90.971a1.493,1.493,0,0,0-2.419-.916l-34.284,19.8A5.087,5.087,0,0,0,147,111.745l-16.794-9.708a5.319,5.319,0,0,1,1.757-1.884l34.284-19.8a4.979,4.979,0,0,1,4.489,0l12.313,7.111A5.72,5.72,0,0,1,185.471,90.971Z" transform="translate(-110.655 -37.5)"/><g transform="translate(9.058)"><path class="c" d="M120.09,61.861l54.3-31.356a4.944,4.944,0,0,1,4.472,0l12.322,7.12a4.946,4.946,0,0,1,2.24,3.878V65.425a4.946,4.946,0,0,1-2.24,3.878l-54.3,31.356a4.944,4.944,0,0,1-4.472,0l-12.322-7.12a4.946,4.946,0,0,1-2.24-3.878V65.739A4.946,4.946,0,0,1,120.09,61.861Z" transform="translate(-117.842 -29.953)"/><path class="h" d="M193.526,41.135c-.153-1.154-1.095-1.578-2.223-.933L137.009,71.549a4.42,4.42,0,0,0-1.578,1.672l-16.811-9.7a4.592,4.592,0,0,1,1.6-1.672l54.294-31.364a4.944,4.944,0,0,1,4.472,0L191.3,37.6A5.07,5.07,0,0,1,193.526,41.135Z" transform="translate(-117.958 -29.95)"/><path class="i" d="M136.526,106.815c-.017.008-.034.008-.051.017-.042.008-.085.034-.136.042a.433.433,0,0,1-.144.059.712.712,0,0,1-.221.059c-.085.017-.178.042-.272.059-.051.008-.11.017-.187.034-.127.017-.255.042-.382.051a4.731,4.731,0,0,1-2.732-.509L120.08,99.517a4.946,4.946,0,0,1-2.24-3.878V71.708a4.5,4.5,0,0,1,.653-2.2l16.811,9.7a4.454,4.454,0,0,0-.662,2.2v23.931c0,1.01.509,1.6,1.239,1.6a1.125,1.125,0,0,0,.323-.042A1.213,1.213,0,0,0,136.526,106.815Z" transform="translate(-117.84 -35.939)"/></g><path class="i" d="M161.16,283.145l-16.811-9.691-36.694-77a5.778,5.778,0,0,1-.475-2.122l16.794,9.7a5.733,5.733,0,0,0,.475,2.13Z" transform="translate(-107.169 -54.836)"/><path class="i" d="M172.255,178.061V278.422l-2.529-1.468V179.195c-3.394,1.154-5.966-1.29-5.966-6.034,0-.11,0-.221.008-.331Z" transform="translate(-115.734 -51.581)"/></g><g transform="translate(0 93.44)"><path class="j" d="M234.549,143.934c0-2.733-1.918-3.844-4.285-2.478a9.475,9.475,0,0,0-4.285,7.425c0,2.215,1.264,3.335,3,2.97-2.419,50.585-37.822,110.2-81.016,135.132-21.461,12.39-41.582,14.426-56.653,5.728-14.231-8.215-22.42-25.127-23.286-47.861a9.594,9.594,0,0,0,3.063-6.492c0-2.733-1.918-3.844-4.285-2.478a9.475,9.475,0,0,0-4.285,7.425c0,2.334,1.4,3.471,3.284,2.9,1.154,22.9,9.708,40,24.372,48.472a43.131,43.131,0,0,0,21.86,5.626c11.4,0,24.016-3.81,37.076-11.346,44.187-25.509,80.337-86.8,82.213-138.374A9.675,9.675,0,0,0,234.549,143.934Z" transform="translate(-60.356 -140.183)"/><path class="j" d="M230.262,252.916a9.6,9.6,0,0,0-4.116,6.017L70.86,348.588c-.552-1.68-2.155-2.206-4.065-1.1a9.476,9.476,0,0,0-4.285,7.425c0,2.733,1.918,3.844,4.285,2.478a9.627,9.627,0,0,0,4.167-6.22l155.185-89.6c.5,1.8,2.147,2.393,4.116,1.256a9.475,9.475,0,0,0,4.285-7.425C234.548,252.661,232.63,251.549,230.262,252.916Z" transform="translate(-60.355 -157.057)"/><path class="j" d="M72.443,257.5a6.1,6.1,0,1,1-6.1-6.1A6.1,6.1,0,0,1,72.443,257.5Z" transform="translate(-60.011 -156.916)"/><circle class="j" cx="6.101" cy="6.101" r="6.101" transform="translate(0 189.154)"/><path class="j" d="M265.6,257.961a6.1,6.1,0,1,1-6.1-6.1A6.1,6.1,0,0,1,265.6,257.961Z" transform="translate(-89.254 -156.986)"/><path class="j" d="M264.943,146.161a6.1,6.1,0,1,1-6.1-6.1A6.1,6.1,0,0,1,264.943,146.161Z" transform="translate(-89.154 -140.06)"/></g></g><g transform="translate(194.893 114.377)"><g transform="translate(0 226.372)"><path class="k" d="M285.934,380.042c-1.256,2.775-5.864,3.42-8.537,3.5-4.073.136-7.824-1.7-11.439-3.344-2.546-1.154-5.015-2.478-7.527-3.717a35.955,35.955,0,0,0-7.731-3.267c-3.25-.73-8.961-1.086-10.09,3.047-1.222,4.464,4.9,8.214,7.79,10.361,2.809,2.088,6.848,4.506,8.257,7.918,1.714,4.15-3.921,5.457-6.891,5.618-8.435.45-16.726-2.317-24.482-5.338-11.125-4.336-22.2-9.089-33.842-11.9-9.734-2.351-24.89-4.684-30.516,6.152-.11.212.238.619.382.373,6.1-10.014,20.07-7.943,29.684-5.618,11.77,2.843,22.938,7.68,34.19,12.042,7.527,2.911,15.428,5.448,23.583,5.3,3.725-.068,11.244-1.646,8.919-7.052-1.205-2.809-4.073-4.888-6.415-6.687-2.885-2.215-6.152-4.26-8.427-7.154-1.451-1.841-1.909-4.532.569-5.821,2.113-1.095,5.032-.721,7.247-.178,3.394.832,6.611,2.792,9.717,4.362,2.868,1.443,5.754,2.834,8.724,4.065a18.977,18.977,0,0,0,10.608,1.587c2.452-.407,6.1-1.3,7.111-3.9.2-.518-.67-.832-.883-.356Z" transform="translate(-160.905 -372.766)"/></g><g transform="translate(121.633)"><g transform="translate(43.695 54.969)"><path class="l" d="M374.62,178.775c-4.345,5.193-11.516,12.2-15.589,17.312a14.836,14.836,0,0,0-3.3,9.437c.034,2.546.73,4.667,3.216,3.581,1.8-.781,2.936-1.714,5.558-4.3,2.359-2.325,13.764-13.018,13.764-13.018s2.139-13.136,5.66-14.206,6.526-6.7,6.526-6.7C384.71,170.305,380.127,172.189,374.62,178.775Z" transform="translate(-355.728 -170.784)"/></g><path class="m" d="M304.367,311.673c.008-.034.025-.068.034-.1L357.8,113.54c.008-.008.008-.008.008-.017l.017-.051c.017-.042.026-.093.051-.144a3,3,0,0,1,.382-.8,4.692,4.692,0,0,1,.611-.772,6.867,6.867,0,0,1,3.182-1.68A17.048,17.048,0,0,1,376.94,114.1a6.138,6.138,0,0,1,2.045,4.073,3.579,3.579,0,0,1-.127,1.052L325.973,315.339l-.552,2.054h-.008v.008c-.4,1.536-1.85,2.783-4.2,3.428-4.769,1.256-11.448-.543-14.91-4.022C304.562,315.067,303.943,313.226,304.367,311.673Z" transform="translate(-304.238 -106.564)"/><g transform="translate(0.044 3.78)"><g transform="translate(1.829 223.549)"><path class="j" d="M306.492,379.882h0l1.341-5.321h0a.875.875,0,0,1,.7-.6,2.836,2.836,0,0,1,2.453.662.889.889,0,0,1,.314.849h0l-1.324,5.312h0a1.856,1.856,0,0,1-.458.772,1.8,1.8,0,0,1-2.554-.009A1.768,1.768,0,0,1,306.492,379.882Z" transform="translate(-306.445 -373.894)"/><path class="k" d="M306.45,381.3v-.017c.009-.1.017-.212.034-.314.008-.008,0-.017.008-.017.39,1.095,2.529,1.807,3.445,1.01a.36.36,0,0,1-.034.1.852.852,0,0,1-.034.093,1.529,1.529,0,0,1-.339.475,1.8,1.8,0,0,1-2.554-.017A1.691,1.691,0,0,1,306.45,381.3Z" transform="translate(-306.445 -374.963)"/></g><path class="n" d="M306.114,366.451a9.719,9.719,0,0,0,8.5,2.3,3.52,3.52,0,0,0,2.147-1.366l7.892-12.228a6.632,6.632,0,0,1-3.454,1.994,17.086,17.086,0,0,1-14.91-4.022,6.5,6.5,0,0,1-2-3.6l.645,14.52c0,.093.009.2.017.289A3.671,3.671,0,0,0,306.114,366.451Z" transform="translate(-304.29 -146.656)"/><path class="o" d="M306.8,360.792a12.115,12.115,0,0,0,10.557,2.851,3.816,3.816,0,0,0,2.979-2.427c.322-1.1-.085-2.4-1.332-3.657a12.02,12.02,0,0,0-10.54-2.86c-1.7.45-2.733,1.349-3.013,2.461A3.811,3.811,0,0,0,306.8,360.792Z" transform="translate(-304.452 -147.396)"/><g transform="translate(0 202.874)"><path class="n" d="M306.114,366.451a9.719,9.719,0,0,0,8.5,2.3,3.52,3.52,0,0,0,2.147-1.366l7.892-12.228a6.632,6.632,0,0,1-3.454,1.994,17.086,17.086,0,0,1-14.91-4.022,6.5,6.5,0,0,1-2-3.6l.645,14.52c0,.093.009.2.017.289A3.671,3.671,0,0,0,306.114,366.451Z" transform="translate(-304.29 -349.53)"/><path class="c" d="M306,371.445h-.017l-.594-13.247a2.507,2.507,0,0,1-.017-.356c0-1.4,1.078-2.588,3.1-3.123a12.044,12.044,0,0,1,10.514,2.843c1.417,1.426,1.765,2.928,1.171,4.124a.765.765,0,0,0-.042.076l-.2.305-7.264,11.244h-.008a2,2,0,0,1-1.214.781,5.475,5.475,0,0,1-4.786-1.3A1.943,1.943,0,0,1,306,371.445Z" transform="translate(-304.453 -350.273)"/><path class="o" d="M306,371.445h-.017l-.594-13.247c-.008-.119,1.02,1.9,1.028,1.783,0-1.4.033-4.728,2.052-5.262a12.044,12.044,0,0,1,10.514,2.843c1.417,1.426,1.765,2.928,1.171,4.124a.765.765,0,0,0-.042.076l-.2.305-7.264,11.244h-.008a2,2,0,0,1-1.214.781,5.475,5.475,0,0,1-4.786-1.3A1.943,1.943,0,0,1,306,371.445Z" transform="translate(-304.453 -350.273)"/><path class="c" d="M306.8,360.792a12.115,12.115,0,0,0,10.557,2.851,3.816,3.816,0,0,0,2.979-2.427c.322-1.1-.085-2.4-1.332-3.657a12.02,12.02,0,0,0-10.54-2.86c-1.7.45-2.733,1.349-3.013,2.461A3.811,3.811,0,0,0,306.8,360.792Z" transform="translate(-304.452 -350.27)"/><path class="c" d="M306.8,360.792a12.115,12.115,0,0,0,10.557,2.851,3.816,3.816,0,0,0,2.979-2.427c.322-1.1-.085-2.4-1.332-3.657a12.02,12.02,0,0,0-10.54-2.86c-1.7.45-2.733,1.349-3.013,2.461A3.811,3.811,0,0,0,306.8,360.792Z" transform="translate(-304.452 -350.27)"/><path class="p" d="M305.444,357.263a3.461,3.461,0,0,1,2.283-2.223,17.816,17.816,0,0,0,11.83,3.259,3.378,3.378,0,0,1,.781,3.021c-.289,1.086-1.307,1.969-2.979,2.427A12.089,12.089,0,0,1,306.8,360.9,3.851,3.851,0,0,1,305.444,357.263Z" transform="translate(-304.451 -350.364)"/><g transform="translate(1.247 14.689)"><path class="q" d="M306.7,374.673a5.488,5.488,0,0,0,4.795,1.29,2.007,2.007,0,0,0,1.205-.781h.017l3.5-5.431a3.414,3.414,0,0,1-1.757,1,8.811,8.811,0,0,1-7.68-2.062,3.28,3.28,0,0,1-1.027-1.85l.289,6.492h.017A1.858,1.858,0,0,0,306.7,374.673Z" transform="translate(-305.76 -366.84)"/></g></g><g transform="translate(45.663 26.012)"><path class="r" d="M366.815,142.485a1.909,1.909,0,0,1,1.5-1.23,6.025,6.025,0,0,1,5.261,1.426,1.9,1.9,0,0,1,.679,1.824h0l-8.7,32.128a2.031,2.031,0,0,0-.713-1.621,6.068,6.068,0,0,0-5.3-1.434,1.986,1.986,0,0,0-1.451,1.086Z" transform="translate(-358.1 -141.115)"/><path class="n" d="M369.041,144.3a6.049,6.049,0,0,0,5.27,1.426,1.908,1.908,0,0,0,1.485-1.213,1.865,1.865,0,0,0-.67-1.824,5.982,5.982,0,0,0-5.261-1.426,1.882,1.882,0,0,0-1.5,1.23A1.921,1.921,0,0,0,369.041,144.3Z" transform="translate(-359.647 -141.116)"/></g><path class="c" d="M365.536,123.554h0l.025-.093c.008-.042.025-.093.034-.136l2.5-9.233c.025-.1.051-.2.076-.3l.017-.068h.008c.45-1.3,1.714-2.368,3.742-2.9a15.337,15.337,0,0,1,13.391,3.624c1.57,1.578,2.113,3.233,1.723,4.642h0l-2.537,9.394c-.009.025-.009.042-.017.068l-.017.076h0c-.416,1.349-1.706,2.452-3.785,3a15.337,15.337,0,0,1-13.391-3.624C365.8,126.5,365.239,124.912,365.536,123.554Z" transform="translate(-313.551 -110.463)"/><path class="p" d="M365.536,123.554h0l.025-.093c.008-.042.025-.093.034-.136l2.5-9.233c.025-.1.051-.2.076-.3l.017-.068h.008c.45-1.3,1.714-2.368,3.742-2.9a15.337,15.337,0,0,1,13.391,3.624c1.57,1.578,2.113,3.233,1.723,4.642h0l-2.537,9.394c-.009.025-.009.042-.017.068l-.017.076h0c-.416,1.349-1.706,2.452-3.785,3a15.337,15.337,0,0,1-13.391-3.624C365.8,126.5,365.239,124.912,365.536,123.554Z" transform="translate(-313.551 -110.463)"/></g><path class="j" d="M309.942,331.729l3.624-13.391,37.059-137.678a.041.041,0,0,1,.017-.051l.076-.288a2.006,2.006,0,0,1,1.451-1.086,6.087,6.087,0,0,1,5.3,1.434,2.02,2.02,0,0,1,.713,1.621.012.012,0,0,1,0,.017l-.1.365L321.008,320.341l-3.615,13.408a1.909,1.909,0,0,1-1.485,1.214,6.044,6.044,0,0,1-4.014-.543c-.178-.085-.331-.178-.492-.272a4.2,4.2,0,0,1-.764-.6A1.939,1.939,0,0,1,309.942,331.729Z" transform="translate(-305.095 -117.074)"/><path class="k" d="M358.641,182.282a6.05,6.05,0,0,0,5.27,1.426,1.908,1.908,0,0,0,1.485-1.214,1.865,1.865,0,0,0-.67-1.824,5.989,5.989,0,0,0-5.261-1.426,1.882,1.882,0,0,0-1.5,1.23A1.9,1.9,0,0,0,358.641,182.282Z" transform="translate(-312.365 -117.074)"/><path class="k" d="M309.942,358.6l.552-2.028a18.572,18.572,0,0,0,7.451,2.011l-.552,2.037a1.908,1.908,0,0,1-1.485,1.213,6.043,6.043,0,0,1-4.014-.543,4.6,4.6,0,0,1-1.256-.874A1.939,1.939,0,0,1,309.942,358.6Z" transform="translate(-305.095 -143.942)"/><path class="n" d="M369.245,118.7c3.462,3.479,10.141,5.278,14.91,4.022,2.351-.636,3.8-1.884,4.2-3.428.458-1.553-.127-3.394-1.884-5.168-3.445-3.5-10.124-5.3-14.885-4.039-2.393.636-3.861,1.909-4.26,3.479C366.9,115.129,367.522,116.97,369.245,118.7Z" transform="translate(-313.77 -106.565)"/><path class="c" d="M369.584,117.1c3.462,3.479,10.141,5.278,14.91,4.022,2.351-.636,3.8-1.884,4.2-3.428l.025-.068.569-2.054c.009-.051.017-.076.025-.119.025-.11.042-.212.059-.331a2.674,2.674,0,0,0,.034-.45c0-.093,0-.187-.009-.289a.054.054,0,0,0,0-.051c-.008-.085-.017-.187-.034-.289a4.581,4.581,0,0,0-.356-1.264c-.051-.119-.11-.246-.17-.356a.716.716,0,0,0-.093-.178,1.8,1.8,0,0,0-.178-.305,7.605,7.605,0,0,0-1.205-1.5,17.036,17.036,0,0,0-14.876-4.031A6.906,6.906,0,0,0,369.3,108.1l-.017.017a4.1,4.1,0,0,0-.314.356l-.263.365c-.051.076-.093.161-.136.238l-.085.144a2.039,2.039,0,0,0-.127.314l-.025.068c-.034.1-.076.2-.1.314l-.492,1.791a1.188,1.188,0,0,0-.076.246C367.242,113.528,367.861,115.37,369.584,117.1Z" transform="translate(-314.105 -104.965)"/><g transform="translate(58.112 17.839)"><g transform="translate(8.14)"><path class="k" d="M399.341,159.464h0a17.049,17.049,0,0,0,17.048-17.049v-.942a14.443,14.443,0,0,0-14.443-14.443h-5.193a14.443,14.443,0,0,0-14.443,14.443v.942A17.029,17.029,0,0,0,399.341,159.464Z" transform="translate(-382.31 -127.03)"/></g><path class="k" d="M429.239,163.163h0a7.736,7.736,0,0,1-7.739-7.739V140.03h0a7.736,7.736,0,0,1,7.739,7.739Z" transform="translate(-380.103 -128.998)"/><g transform="translate(0 191.884)"><path class="k" d="M380.349,362.306a45.391,45.391,0,0,1-6.5,5.66,2.777,2.777,0,0,0-.9.933c-.306.636-.781,2.215,2.122,3.233a10.83,10.83,0,0,0,8.97-.857c2.385-1.494,2.495-4.608,4.752-6.382,1.672-1.315,3.759-1.655,5.109-3.369.942-1.2.7-2.783.2-4.752-.535-2.147-.781-3.776-1.494-3.615l.119.993c-.891,1.417-5.491,1.833-7.536.857C385.186,355,381.638,360.889,380.349,362.306Z" transform="translate(-372.718 -353.147)"/></g><g transform="translate(3.713 185.726)"><path class="s" d="M378.991,363.219V363.2c.687-.636,1.366-1.29,2.02-1.994a56.18,56.18,0,0,0,3.759-5.533,8.446,8.446,0,0,0,1.6-4.048c.051-1.9-.136-5.287-.136-5.287l6.814-.45.331,7.154h0c.178,1.621-1.163,3.063-3.539,5.1s-5.389,6.814-7.536,8.011-3.683,1.154-4.6.543C376.776,366.061,376.683,365.578,378.991,363.219Z" transform="translate(-377.093 -345.89)"/></g><g transform="translate(22.7 198.699)"><path class="k" d="M407.1,370.336a45.388,45.388,0,0,1-6.5,5.66,2.778,2.778,0,0,0-.9.933c-.305.636-.781,2.215,2.122,3.233a10.83,10.83,0,0,0,8.97-.857c2.385-1.494,2.495-4.608,4.752-6.382,1.672-1.315,3.759-1.655,5.109-3.369.942-1.2.7-2.783.2-4.752-.535-2.147-.781-3.776-1.494-3.615l.119.993c-.891,1.417-5.49,1.833-7.536.857C411.927,363.03,408.388,368.919,407.1,370.336Z" transform="translate(-399.468 -361.177)"/></g><g transform="translate(26.407 193.066)"><path class="s" d="M405.74,371.342v-.017c.687-.636,1.366-1.29,2.02-1.994a56.177,56.177,0,0,0,3.759-5.533,9.6,9.6,0,0,0,1.6-4.116c.119-1.672.034-5.143.034-5.143l6.814.034.17,6.594h0c.178,1.621-1.163,3.055-3.539,5.1s-5.389,6.814-7.536,8.011-3.683,1.154-4.6.543C403.517,374.185,403.424,373.7,405.74,371.342Z" transform="translate(-403.836 -354.54)"/></g><g transform="translate(4.459 80.711)"><path class="t" d="M416.124,224.083c5.94,12.975-.815,62.169-.815,62.169.178,2.1,2.037,5.38,2.249,11.813.28,8.257-1.188,38.739-1.188,38.739a8.616,8.616,0,0,1-7.773.153s-7.035-41.386-8.41-52.266c-1.2-9.5-3.5-31.831-3.5-31.831l-4.727,31.78a30.715,30.715,0,0,1,2.554,10.1c.17,6.432-.781,36.278-.781,36.278a18.009,18.009,0,0,1-7.9.272s-7.154-40.394-7.833-48.1c-.4-4.6,3.038-61.049,3.038-61.049Z" transform="translate(-377.972 -222.14)"/></g><g transform="translate(9.396 95.646)"><path class="k" d="M397.58,255.516l-1.926-10.608s-8.155-1.689-11.864-5.168a21.058,21.058,0,0,0,9.649,6.407l2.164,9.275-2.138,27.732Z" transform="translate(-383.79 -239.74)"/></g><g transform="translate(7.333 37.237)"><path class="u" d="M405.044,171.207h0c5.21.721,8.011,1.867,9.691,6.772a19.063,19.063,0,0,1-.305,11.125l-4.557,13.315a71.352,71.352,0,0,1,6.763,13.917c-13.315,7.434-31.067,3.479-35.073-1.943-.17-1.154.908-6.712.585-12.619-.348-6.3-1.358-13.518-.365-17.4,1.833-7.222,6.874-11.931,12.551-13.459Z" transform="translate(-381.359 -170.91)"/></g><g transform="translate(9.908 6.891)"><path class="s" d="M388.218,135.15c-1.8,1.061-4.022,5.592-3.81,15.088.187,8.045,2.792,10.031,4.107,10.608s3.836.221,6.288-.187v4.829s-3.395,3.938-3.182,6.152,4.9,2.741,8.079.577a20.585,20.585,0,0,0,5.211-5.457V155.092a3.083,3.083,0,0,0,4.37.416c2.707-1.8,2.817-6.254,1.239-7.858s-4.973-1.095-5.609,1.12c0,0-3.912.144-9.131-2.724A14.673,14.673,0,0,1,388.218,135.15Z" transform="translate(-384.393 -135.15)"/></g><g transform="translate(18.908 18.957)"><path class="k" d="M395,150.371a1.012,1.012,0,1,0,1.061-1A1.029,1.029,0,0,0,395,150.371Z" transform="translate(-394.999 -149.369)"/></g><g transform="translate(16.287 26.774)"><path class="l" d="M394.261,158.58l-2.351.747a1.209,1.209,0,0,0,1.528.84A1.281,1.281,0,0,0,394.261,158.58Z" transform="translate(-391.91 -158.58)"/></g><g transform="translate(10.406 14.872)"><path class="k" d="M385.184,146.537l2.045-1.417a1.193,1.193,0,0,0-1.7-.348A1.3,1.3,0,0,0,385.184,146.537Z" transform="translate(-384.98 -144.556)"/></g><g transform="translate(11.084 18.226)"><path class="k" d="M385.78,149.511a1.012,1.012,0,1,0,1.061-1A1.029,1.029,0,0,0,385.78,149.511Z" transform="translate(-385.779 -148.508)"/></g><g transform="translate(12.493 18.644)"><path class="l" d="M390.8,149l-.161,6.093-3.2-.993Z" transform="translate(-387.44 -149)"/></g><g transform="translate(20.318 28.428)"><path class="l" d="M396.66,164.5c2.588-.339,7.909-1.867,8.741-3.971a5.456,5.456,0,0,1-1.867,2.682c-1.587,1.366-6.874,2.9-6.874,2.9V164.5Z" transform="translate(-396.66 -160.53)"/></g></g><g transform="translate(28.103 56.586)"><path class="s" d="M346.736,210.682c1.578.594,3.165.636,5.329,1.655a10.133,10.133,0,0,0,4.659,1.332c2.122.1,8.053-2.427,13.272-4.854a55.059,55.059,0,0,0,15.215-10.888,110.34,110.34,0,0,0,11.728-16.862c1.858-3.182,3.768-7.8,6.7-8.376,5.126.535,7.213,9.47,3.887,14.986a103.467,103.467,0,0,1-15.546,18.848c-3.055,2.962-8.656,6.178-16.675,9.606a108.675,108.675,0,0,1-16.191,5.575c-1.6.416-2.741,1.018-5.754,2.054a13.411,13.411,0,0,1-3.819.95,17.008,17.008,0,0,1-4.854-.518,11.58,11.58,0,0,1-5.312-3,7.187,7.187,0,0,1-1.774-2.86,4.823,4.823,0,0,1,.11-3.327,1.313,1.313,0,0,1,.39-.56,1.624,1.624,0,0,1,1.205-.144,68.947,68.947,0,0,0,7.018,1.12c1.952.076,3.335-.144,3.089-.441s-1.392-.272-2.877-1.1c-1.409-.8-2.325-2.427-1.808-3.182S345.149,210.088,346.736,210.682Z" transform="translate(-337.355 -172.69)"/></g><path class="s" d="M347.063,191.313s2.122-1.689,6.152-1.027c1.952.322,1.205,7.7-5.066,9.759-4.082,1.341-4.913.645-6.229,4.005,0,0-2.461-.509-1.867-4.268a21.015,21.015,0,0,1,4.973-10.4c1.8-2.122,1.918-3.912,2.8-3.31,1,.687.39,2.436.39,2.436Z" transform="translate(-309.646 -118.111)"/></g></g></g></svg>